/* XPM */
static char *tunnel[] = {
/* columns rows colors chars-per-pixel */
"32 32 195 2 ",
"   c #1B1B1B",
".  c gray11",
"X  c #1D1D1D",
"o  c #1E1E1E",
"O  c gray12",
"+  c #202020",
"@  c gray13",
"#  c #222222",
"$  c #232323",
"%  c gray14",
"&  c #252525",
"*  c gray15",
"=  c #272727",
"-  c #282828",
";  c gray16",
":  c #2A2A2A",
">  c gray17",
",  c #2C2C2C",
"<  c #2D2D2D",
"1  c gray18",
"2  c #2F2F2F",
"3  c gray19",
"4  c #313131",
"5  c #323232",
"6  c gray20",
"7  c #343434",
"8  c gray21",
"9  c #393939",
"0  c #3A3A3A",
"q  c gray23",
"w  c #3C3C3C",
"e  c #3E3E3E",
"r  c #3F3F3F",
"t  c gray25",
"y  c #414141",
"u  c gray26",
"i  c gray27",
"p  c #464646",
"a  c gray28",
"s  c #484848",
"d  c #494949",
"f  c gray29",
"g  c #4B4B4B",
"h  c #4C4C4C",
"j  c gray30",
"k  c #4E4E4E",
"l  c gray31",
"z  c #505050",
"x  c #515151",
"c  c gray32",
"v  c #535353",
"b  c #515354",
"n  c gray33",
"m  c #555555",
"M  c #565655",
"N  c #565656",
"B  c gray34",
"V  c #575858",
"C  c #575859",
"Z  c #585858",
"A  c gray35",
"S  c #59595A",
"D  c #5A5A5A",
"F  c #5B5B5B",
"G  c #5D5D5D",
"H  c gray37",
"J  c #5F5F5F",
"K  c #60605F",
"L  c gray38",
"P  c #606162",
"I  c gray39",
"U  c #646464",
"Y  c #656565",
"T  c gray40",
"R  c #676767",
"E  c DimGray",
"W  c gray43",
"Q  c #6F6F6F",
"!  c gray44",
"~  c #717171",
"^  c #727171",
"/  c gray46",
"(  c #767575",
")  c #767676",
"_  c #777777",
"`  c #757778",
"'  c #767879",
"]  c gray47",
"[  c #797979",
"{  c #78797A",
"}  c #78797B",
"|  c gray48",
" . c #7B7C7C",
".. c #7B7C7D",
"X. c #7C7C7C",
"o. c gray49",
"O. c #7E7E7E",
"+. c #818181",
"@. c #818283",
"#. c #838486",
"$. c #848484",
"%. c #848687",
"&. c #868686",
"*. c gray53",
"=. c #888888",
"-. c #898989",
";. c #898A8A",
":. c #898A8B",
">. c #8A8B8C",
",. c #8C8D8E",
"<. c #909090",
"1. c #919292",
"2. c #929292",
"3. c #939393",
"4. c #959595",
"5. c #949596",
"6. c #979797",
"7. c #969798",
"8. c #979899",
"9. c #989898",
"0. c #9B9B9B",
"q. c #9A9B9C",
"w. c #9D9D9D",
"e. c #9D9E9E",
"r. c #9D9E9F",
"t. c #9E9F9F",
"y. c #9F9F9F",
"u. c #A0A0A0",
"i. c gray63",
"p. c #A2A2A2",
"a. c #A2A3A4",
"s. c #A2A4A4",
"d. c #A3A4A5",
"f. c #A4A6A6",
"g. c #A7A7A7",
"h. c #A5A7A8",
"j. c #A8A9A9",
"k. c #A9A9AA",
"l. c #A9AAAB",
"z. c #AAABAB",
"x. c gray67",
"c. c #ACACAC",
"v. c gray68",
"b. c #AEAEAE",
"n. c #AEAFB0",
"m. c #AFB0B1",
"M. c gray69",
"N. c #B1B1B1",
"B. c #B2B2B2",
"V. c gray70",
"C. c #B2B3B4",
"Z. c gray71",
"A. c #B6B6B6",
"S. c #B7B7B7",
"D. c gray72",
"F. c #BBBBBB",
"G. c #BCBCBC",
"H. c gray75",
"J. c #BFC0C0",
"K. c #C1C2C2",
"L. c gray76",
"P. c #C3C3C3",
"I. c #C3C3C4",
"U. c #C3C4C4",
"Y. c gray78",
"T. c gray79",
"R. c #C8C9CA",
"E. c #C9CBCB",
"W. c #CBCBCB",
"Q. c gray80",
"!. c #CDCDCD",
"~. c #D2D2D2",
"^. c #D5D5D5",
"/. c #D7D7D7",
"(. c #D8D8D8",
"). c gray86",
"_. c gray87",
"`. c #DFDFDF",
"'. c gray88",
"]. c #E1E1E1",
"[. c #E2E2E2",
"{. c gray89",
"}. c #E4E4E4",
"|. c gray90",
" X c #E6E6E6",
".X c #E7E7E7",
"XX c #E7E8E7",
"oX c #E8E7E8",
"OX c gray91",
"+X c #E9E9E9",
"@X c gray92",
"#X c #ECECEC",
"$X c #EFEFEF",
"%X c gray94",
"&X c None",
/* pixels */
"N N N N v N v N n N n N n N n N n N N N N N N B B B Z Z Z D &X&X",
"N N N N v N v v v v n n n n n n n n n N n N N N N B B N B Z D &X",
"N N N N N v N v v v v v v v v n n n n n N v n N N N N N N N N N ",
"v v v v v v v v v v v v v v v v v v v n n n n v v n n N N N N N ",
"v v v v v v l v v v z v v v v v v v v v z v v v v v v v v v N N ",
"v v v l v v v l z v z v z z z z z z z v v v z v v v v v v v v v ",
"v v v v v v l v z z z z z z z v z v z v l v z v v v v v v v v v ",
"v v v l l l l l z z z z n P W ) _ Q K n l z l z l l l v l l v v ",
"l v l l l l l l l l v T :.w.s.x.x.s.w.:.T z l z l v l l l v l l ",
"v l l l l l l l l v ) w.N.!.'.'.{.'.Q.n.t.) v l l l l l l l l l ",
"l l l l l l l l z ) a.L. XOX.X X.X.X+X XL.s.) z g l l l l l l g ",
"l l l l l l g l T t.U. XOX+XOX X.XOX+X.X XI.t.T g l g g g g g g ",
"l l v ).).'.F.).&.N.)./.). X.X/.).'..X`.).~.z.'.Z.[ g g g g g t ",
"g l l O.L.N.O.$Xq.!.Z.J T Z. XD ) ) .Xt.W g a 7.W.$.a g t 9 4 2 ",
"l g g l c.6.G $X1.'.N.P T P ).F ) l C.i.! h Z.l.W.[ 7 2 2 2 2 2 ",
"g g g g x.6.G $X:.+XZ.T T N 0.P  .B I w._ v $.6.G.^ 2 2 2 2 2 2 ",
"t t t t i.3.n $X$.+XN.I J =.v z [ =.n D _ z N P G._ 2 > , 2 , , ",
"5 5 5 5 3.:.w ).,.'.c.P D Y.z a ) 0.O.g ) l Z.7.D.O.2 2 , , , > ",
"5 5 4 4 1.:.3 h.W.Z.:.) N ).O.a ^ 0.G.g _ g ' W.N.L.c.c.6 : : : ",
"3 3 3 3 s a 2 4 [ C G R.B `.L.h ^ y..XE O.l v ..z D F D 2 : - : ",
"3 2 2 , 2 2 2 2 t  .J. X'.+X+X{.'. X+X.X{.G.' w : : - : - - - - ",
"3 2 3 , , 2 > > 2 g %.J. XOX.X|. XoXOX XJ.$.s : = - - - * = = = ",
"> 2 > > , , > > : 2 g ' h.!.'.{.{.'.!.s.' a > = = = * * * * * * ",
"> > > > > : : : : : > w F ' >.8.8.:._ C 9 - * * * * * * % * % % ",
"> > : : : : : - : = - - > 7 w a a w 6 - * * % * * $ % % % % $ $ ",
": - : - = = - = = * = = * * * * * % * * % % % % % $ $ $ $ # # # ",
"= = - = = = = = * * * * * * % * % % % % $ $ $ $ # # # # # # # + ",
"= = = = * * = * * % * % $ % % $ $ $ $ # # # # # # + # O O + + + ",
"* * % % % % % % % % $ $ $ # # # # # # # # + + + + + + O O O O O ",
"% % % % % % % % $ # # # # # # # # + + O + + O O O O O o o o . o ",
"&X% % % % % + # # # + # # O + + + O O O o O o o o o o . . o . . ",
"&X&X# # O + # + + + + + O O O O O o o o o . o . o   . . .       "
};
